<svg fill="#FF5700" width="24" height="24" viewBox="0 0 32 32" xmlns="http://www.w3.org/2000/svg"><path d="M31.714 11.864L20.209.301a.998.998 0 00-.948-.266.998.998 0 00-.717.674c-.692 2.228-.773 4.245-.244 6.084a.987.987 0 00-.138.113l-5.347 5.346c-1.725-.8-3.579-1.233-5.428-1.233-1.175 0-2.327.174-3.424.515a1 1 0 00-.413 1.661l6.843 6.887-9.568 9.72-.832 2.192 2.011-.777 9.793-9.72 6.932 6.977a.996.996 0 00.947.266c.341-.084.613-.34.717-.675.905-2.913.64-6.042-.636-8.848l5.459-5.46c.02-.02.033-.041.051-.063a9.267 9.267 0 002.564.361c1.101 0 2.268-.158 3.468-.531a1 1 0 00.412-1.659zM18.849 25.755L6.262 13.086c3.23-.377 6.714.925 9.236 3.447 2.51 2.509 3.735 5.978 3.351 9.221zm-.092-8.363a14.275 14.275 0 00-4.125-4.128l4.504-4.503a10.945 10.945 0 001.782 2.291 10.9 10.9 0 002.363 1.814zm3.575-7.753c-1.923-1.923-2.664-4.067-2.271-6.653l8.966 9.012c-2.583.37-4.738-.403-6.695-2.36z"/></svg>